<?xml version="1.0" encoding="iso-8859-1"?>
<!-- Generator: Adobe Illustrator 19.0.0, SVG Export Plug-In . SVG Version: 6.00 Build 0)  -->
<svg version="1.1" id="Capa_1" xmlns="http://www.w3.org/2000/svg" xmlns:xlink="http://www.w3.org/1999/xlink" x="0px" y="0px"
	 viewBox="0 0 511.985 511.985" style="enable-background:new 0 0 511.985 511.985;" xml:space="preserve">
<g>
	<path style="fill:#ECEFF1;" d="M292.841,14.193c-0.448-4.384-2.784-8.384-6.304-11.008s-8-3.712-12.352-2.944l-90.496,16
		c-5.792,1.024-10.528,5.088-12.416,10.656L80.777,297.809c-1.92,5.76-0.448,12.096,3.872,16.384l33.952,33.952
		c3.008,3.008,7.072,4.672,11.328,4.672c0.416,0,0.864-0.032,1.28-0.064c4.672-0.384,8.96-2.784,11.712-6.592l158.4-219.648
		c2.336-3.232,3.36-7.2,2.944-11.136L292.841,14.193z"/>
	<path style="fill:#ECEFF1;" d="M499.433,230.673l-101.152-22.656c-4.448-1.024-9.184,0-12.832,2.624l-219.648,158.4
		c-3.808,2.752-6.208,7.008-6.592,11.68s1.344,9.28,4.64,12.608l33.952,33.952c3.008,3.072,7.104,4.704,11.296,4.704
		c1.696,0,3.392-0.288,5.088-0.8l270.848-90.496c5.44-1.824,9.504-6.4,10.624-12.032l16-79.168
		C513.353,240.945,507.945,232.593,499.433,230.673z"/>
</g>
<g>
	<path style="fill:#CFD8DC;" d="M399.849,126.193c-0.832-7.424-6.688-13.28-14.08-14.08l-95.68-10.848
		c-6.048-0.736-11.424,1.824-14.784,6.528l-158.4,219.68c-4.576,6.336-3.872,15.136,1.664,20.672l45.28,45.248
		c3.104,3.104,7.2,4.672,11.328,4.672c3.264,0,6.56-0.992,9.344-3.04l219.616-158.368c4.704-3.392,7.232-9.056,6.56-14.784
		L399.849,126.193z"/>
	<path style="fill:#CFD8DC;" d="M175.145,449.937l-113.12-113.12c-6.24-6.24-16.384-6.24-22.624,0l-11.328,11.328
		c-37.408,37.44-37.408,98.304,0,135.744c18.112,18.112,42.24,28.096,67.872,28.096s49.76-10.016,67.872-28.128l11.328-11.328
		C181.385,466.289,181.385,456.177,175.145,449.937z"/>
</g>
<path style="fill:#F44336;" d="M220.361,404.657l-113.088-113.12c-6.24-6.24-16.384-6.24-22.624,0l-45.248,45.248
	c-6.24,6.24-6.24,16.384,0,22.624l113.12,113.12c3.136,3.136,7.232,4.672,11.328,4.672s8.192-1.568,11.328-4.672l45.28-45.248
	c3.008-3.008,4.672-7.104,4.672-11.328S223.369,407.633,220.361,404.657z"/>
<g>
</g>
<g>
</g>
<g>
</g>
<g>
</g>
<g>
</g>
<g>
</g>
<g>
</g>
<g>
</g>
<g>
</g>
<g>
</g>
<g>
</g>
<g>
</g>
<g>
</g>
<g>
</g>
<g>
</g>
</svg>
